<?xml version="1.0" encoding="UTF-8"?>
<!-- Created with Inkscape (http://www.inkscape.org/) -->
<svg width="512" height="512" version="1.1" viewBox="0 0 135.47 135.47" xmlns="http://www.w3.org/2000/svg">
 <g>
  <path d="m92.382 134.34c5.0916-44.64-34.698-100.21-34.698-100.21 1.0236-3.6503 2.8174-5.407 6.7474-3.8063 0 0 45.655 53.237 55.246 99.028z" fill="#7b4522"/>
  <path d="m58.481 26.923c-18.335 19.538-23.248 49.685-23.248 49.685-6.4188-21.788 5.9524-47.539 5.9524-47.539-14.735 6.2908-24.377 26.699-24.377 26.699s-9.2829-21.759 28.189-41.091c-7.6345-5.7791-27.506 6.0206-27.506 6.0206s16.166-26.232 40.612-11.576c20.797-15.125 43.651-4.156 43.651-4.156s-24.974 1.4462-31.27 10.053c0 0 33.403-2.3287 44.013 12.749 0 0-36.16-5.1612-56.016-0.8455z" fill="#267b22"/>
 </g>
</svg>
